<?xml version="1.0" encoding="UTF-8" standalone="no"?>
<svg
   width="560"
   height="120"
   version="1.1"
   viewBox="0 0 148.16667 31.749999"
   id="svg92"
   sodipodi:docname="XMonadLogo.svg"
   inkscape:export-filename="logo-wordmark.svg"
   inkscape:export-xdpi="96"
   inkscape:export-ydpi="96"
   inkscape:version="1.2.1 (9c6d41e410, 2022-07-14)"
   xmlns:inkscape="http://www.inkscape.org/namespaces/inkscape"
   xmlns:sodipodi="http://sodipodi.sourceforge.net/DTD/sodipodi-0.dtd"
   xmlns="http://www.w3.org/2000/svg"
   xmlns:svg="http://www.w3.org/2000/svg"
   xmlns:rdf="http://www.w3.org/1999/02/22-rdf-syntax-ns#"
   xmlns:cc="http://creativecommons.org/ns#">
  <defs
     id="defs96" />
  <sodipodi:namedview
     id="namedview94"
     pagecolor="#ffffff"
     bordercolor="#000000"
     borderopacity="0.25"
     inkscape:showpageshadow="2"
     inkscape:pageopacity="0.0"
     inkscape:pagecheckerboard="0"
     inkscape:deskcolor="#d1d1d1"
     inkscape:document-units="px"
     showgrid="false"
     inkscape:zoom="2.7641312"
     inkscape:cx="263.91656"
     inkscape:cy="34.730624"
     inkscape:window-width="2520"
     inkscape:window-height="1330"
     inkscape:window-x="16"
     inkscape:window-y="40"
     inkscape:window-maximized="1"
     inkscape:current-layer="svg92" />
  <!-- © Hans Heintze: https://github.com/literallyunplayable -->
  <rect
     style="fill:#000000;fill-opacity:1;stroke-width:0.201108"
     id="rect1179"
     width="148.16667"
     height="31.75"
     x="-2.8764648e-06"
     y="-7.142858e-08" />
  <metadata
     id="metadata90">
    <rdf:RDF>
      <cc:Work
         rdf:about="">
        <cc:license
           rdf:resource="http://creativecommons.org/licenses/by-sa/4.0/" />
      </cc:Work>
      <cc:License
         rdf:about="http://creativecommons.org/licenses/by-sa/4.0/">
        <cc:permits
           rdf:resource="http://creativecommons.org/ns#Reproduction" />
        <cc:permits
           rdf:resource="http://creativecommons.org/ns#Distribution" />
        <cc:requires
           rdf:resource="http://creativecommons.org/ns#Notice" />
        <cc:requires
           rdf:resource="http://creativecommons.org/ns#Attribution" />
        <cc:permits
           rdf:resource="http://creativecommons.org/ns#DerivativeWorks" />
        <cc:requires
           rdf:resource="http://creativecommons.org/ns#ShareAlike" />
      </cc:License>
    </rdf:RDF>
  </metadata>
  <g
     id="g296">
    <g
       id="g1795"
       transform="translate(-37.426113,-45.506624)">
      <path
         style="font-weight:500;font-size:42.3333px;font-family:Hasklig;-inkscape-font-specification:'Hasklig, Medium';fill:#e9eaeb;fill-opacity:1;stroke-width:0.264583"
         d="m 54.71914,48.406864 -3.164664,6.020305 2.174544,3.671093 5.477702,-9.691398 z"
         id="path1791" />
      <path
         style="font-weight:500;font-size:42.3333px;font-family:Hasklig;-inkscape-font-specification:'Hasklig, Medium';fill:#7652b8;stroke-width:0.264583"
         d="M 38.632784,48.406864 46.337223,61.8262 38.124805,76.134887 h 4.444689 l 3.810104,-6.985103 1.100708,-2.116667 c 0.366887,-0.733775 0.747973,-1.523732 1.143082,-2.370398 h 0.169499 c 0.423332,0.846666 0.832206,1.636623 1.227315,2.370398 0.395111,0.705554 0.776195,1.411113 1.143083,2.116667 l 3.894853,6.985103 h 4.656563 L 49.449178,58.760237 43.331722,48.406864 Z"
         id="path1107-2" />
    </g>
    <path
       id="path1109"
       style="font-weight:500;font-size:42.3333px;font-family:Hasklig;-inkscape-font-specification:'Hasklig, Medium';fill:#e9eaeb;stroke-width:0.264583;fill-opacity:1"
       d="M 143.27704 0.61391601 L 143.27704 8.3183553 L 143.48892 12.001335 L 143.36179 12.001335 C 142.51513 11.182891 141.61195 10.548096 140.6524 10.096541 C 139.72106 9.6449862 138.64857 9.4190633 137.43502 9.4190633 C 135.85458 9.4190633 134.34491 9.8567573 132.90558 10.731645 C 131.49447 11.606532 130.35122 12.862487 129.47633 14.499373 C 128.60145 16.108037 128.16427 18.041246 128.16427 20.299019 C 128.16427 23.713903 128.98253 26.380974 130.61942 28.300081 C 132.2563 30.190967 134.41544 31.136084 137.09654 31.136084 C 138.33832 31.136084 139.52351 30.839915 140.6524 30.247249 C 141.78128 29.626361 142.75522 28.90665 143.57366 28.088208 L 143.70027 28.088208 L 144.03927 30.628105 L 147.468 30.628105 L 147.468 0.61391601 L 143.27704 0.61391601 z M 27.072249 2.9000814 L 27.072249 30.628105 L 30.882353 30.628105 L 30.882353 18.139978 C 30.882353 17.180424 30.839895 16.037173 30.755229 14.71073 C 30.698784 13.384288 30.613869 12.072239 30.50098 10.774019 C 30.416314 9.4475774 30.317763 8.3609352 30.204875 7.51427 L 30.331999 7.51427 L 32.024918 13.483415 L 35.496541 23.262146 L 38.121187 23.262146 L 41.634668 13.483415 L 43.370479 7.51427 L 43.497603 7.51427 C 43.441159 8.3609352 43.356244 9.4475774 43.243355 10.774019 C 43.130466 12.072239 43.031916 13.384288 42.947249 14.71073 C 42.862583 16.037173 42.820125 17.180424 42.820125 18.139978 L 42.820125 30.628105 L 46.714978 30.628105 L 46.714978 2.9000814 L 41.804166 2.9000814 L 38.205937 14.202751 L 36.978104 18.520833 L 36.808606 18.520833 L 35.581291 14.202751 L 31.983061 2.9000814 L 27.072249 2.9000814 z M 62.293355 9.4190633 C 60.487136 9.4190633 58.794004 9.8567573 57.213562 10.731645 C 55.661342 11.57831 54.391234 12.80596 53.403458 14.414624 C 52.443904 16.023288 51.96427 17.984801 51.96427 20.299019 C 51.96427 22.585016 52.443904 24.546529 53.403458 26.183415 C 54.391234 27.792078 55.661342 29.019729 57.213562 29.866394 C 58.794004 30.713059 60.487136 31.136084 62.293355 31.136084 C 64.099574 31.136084 65.779071 30.713059 67.33129 29.866394 C 68.911732 29.019729 70.18184 27.792078 71.141394 26.183415 C 72.12917 24.546529 72.622957 22.585016 72.622957 20.299019 C 72.622957 17.984801 72.12917 16.023288 71.141394 14.414624 C 70.18184 12.80596 68.911732 11.57831 67.33129 10.731645 C 65.779071 9.8567573 64.099574 9.4190633 62.293355 9.4190633 z M 90.275626 9.4190633 C 88.666962 9.4190633 87.255846 9.8001472 86.042293 10.562146 C 84.828739 11.295923 83.700157 12.199099 82.655936 13.271541 L 82.486438 13.271541 L 82.147957 9.9270426 L 78.718709 9.9270426 L 78.718709 30.628105 L 82.909668 30.628105 L 82.909668 16.361792 C 83.982111 15.261127 84.956049 14.442865 85.830936 13.906645 C 86.705824 13.342201 87.693399 13.059668 88.794063 13.059668 C 90.374505 13.059668 91.489452 13.497362 92.138562 14.372249 C 92.787672 15.218914 93.112146 16.545116 93.112146 18.351335 L 93.112146 30.628105 L 97.303104 30.628105 L 97.303104 17.800981 C 97.303104 15.119875 96.738554 13.059811 95.609668 11.620479 C 94.480781 10.152927 92.702733 9.4190633 90.275626 9.4190633 z M 113.77083 9.4190633 C 111.96461 9.4190633 110.24318 9.729385 108.60629 10.350273 C 106.99763 10.971161 105.61482 11.634778 104.45771 12.340332 L 106.02402 15.176335 C 107.04001 14.583668 108.14029 14.047424 109.32563 13.567647 C 110.53918 13.08787 111.78099 12.848311 113.05098 12.848311 C 114.88542 12.848311 116.18383 13.299641 116.94583 14.202751 C 117.73603 15.10586 118.15957 16.192502 118.21604 17.4625 C 113.02316 17.85761 109.2836 18.661719 106.9976 19.875273 C 104.73983 21.060604 103.61073 22.824499 103.61073 25.166939 C 103.61073 26.973158 104.27383 28.426732 105.60027 29.527397 C 106.95494 30.599839 108.62028 31.136084 110.59583 31.136084 C 112.00694 31.136084 113.40391 30.825762 114.78679 30.204875 C 116.16968 29.555765 117.41148 28.807749 118.51215 27.961084 L 118.63927 27.961084 L 118.97775 30.628105 L 122.407 30.628105 L 122.407 18.182353 C 122.407 15.444802 121.67313 13.299823 120.20558 11.747603 C 118.76625 10.195384 116.62127 9.4190633 113.77083 9.4190633 z M 62.293355 12.890686 C 64.127797 12.890686 65.58137 13.567939 66.653812 14.922603 C 67.754477 16.277267 68.304874 18.069468 68.304874 20.299019 C 68.304874 22.528571 67.754477 24.320255 66.653812 25.674919 C 65.58137 27.029583 64.127797 27.707353 62.293355 27.707353 C 60.458914 27.707353 58.991704 27.029583 57.89104 25.674919 C 56.818597 24.320255 56.282352 22.528571 56.282352 20.299019 C 56.282352 18.069468 56.818597 16.277267 57.89104 14.922603 C 58.991704 13.567939 60.458914 12.890686 62.293355 12.890686 z M 138.36675 12.933061 C 139.18519 12.933061 140.00346 13.088222 140.82189 13.398665 C 141.64034 13.709109 142.4586 14.259506 143.27704 15.049727 L 143.27704 24.870833 C 141.66838 26.733497 139.93279 27.664978 138.07012 27.664978 C 136.32035 27.664978 134.95169 27.029666 133.96392 25.759668 C 132.97614 24.461448 132.48235 22.627307 132.48235 20.256645 C 132.48235 18.760869 132.75021 17.462457 133.28644 16.361792 C 133.82266 15.261127 134.52822 14.414561 135.4031 13.821895 C 136.30622 13.22923 137.29431 12.933061 138.36675 12.933061 z M 118.21604 20.129521 L 118.21604 25.040332 C 117.17181 25.915219 116.11348 26.592472 115.04104 27.072249 C 113.96859 27.552027 112.88195 27.791585 111.78129 27.791585 C 110.6524 27.791585 109.67846 27.566179 108.86002 27.114624 C 108.0698 26.663069 107.67508 25.915054 107.67508 24.870833 C 107.67508 24.024168 107.9854 23.290305 108.60629 22.669417 C 109.2554 22.048529 110.34204 21.526437 111.86604 21.103105 C 113.39004 20.65155 115.50671 20.327076 118.21604 20.129521 z " />
  </g>
</svg>
